<svg width="220" height="53" viewBox="0 0 220 53" fill="none" xmlns="http://www.w3.org/2000/svg">
<text x="64" y="36" font-family="Inter, sans-serif" font-size="28" font-weight="700" fill="white">Main CNX</text>
<g clip-path="url(#clip0_50_39)">
<path d="M3.54686 30.659C3.91779 31.0764 4.10325 31.6099 4.08007 32.1201C4.05689 32.6535 3.84824 33.1637 3.43095 33.5348C2.59636 34.3001 1.3213 34.2537 0.556262 33.4188C0.185335 33.0014 -0.000128871 32.468 0.0230541 31.9577C0.046237 31.4475 0.254883 30.9141 0.672176 30.543C1.48358 29.7545 2.78182 29.8241 3.54686 30.659Z" fill="#761FE3"/>
<path d="M32.1545 17.7641C32.1545 17.8105 32.1313 17.8801 32.1313 17.9265C32.1082 18.3903 32.2009 18.8542 32.3864 19.2716L26.0806 25.0928L19.7748 30.914C19.3112 30.6588 18.8012 30.5429 18.2911 30.5429L11.4753 10.6674C11.7535 10.5051 12.0317 10.3195 12.2867 10.0876C12.5418 9.85568 12.7504 9.60057 12.9127 9.32227L32.1545 17.7641Z" fill="#761FE3"/>
<path d="M5.72617 33.2568L15.4398 34.1613C15.5557 34.6484 15.7876 35.1122 16.1585 35.5065C16.5294 35.9239 16.9931 36.179 17.4799 36.3414L17.6886 44.1107L17.7813 47.4967C17.5031 47.6126 17.2249 47.775 16.9931 47.9605L4.84521 34.7643C5.23932 34.3237 5.5407 33.8134 5.72617 33.2568Z" fill="#761FE3"/>
<path opacity="0.5" d="M9.50492 11.1323C9.57447 11.1323 9.62083 11.1323 9.69038 11.1323L16.5525 31.1238C16.483 31.1701 16.4134 31.2397 16.3207 31.3093C16.0193 31.5876 15.7643 31.9355 15.602 32.3066L5.86519 31.4021C5.74928 30.6599 5.40154 29.9642 4.89151 29.3844C4.38149 28.851 3.75555 28.4567 3.06006 28.2712L8.69351 10.9932C8.94853 11.0859 9.22672 11.1323 9.50492 11.1323Z" fill="#761FE3"/>
<path d="M21.2588 33.8134C21.3052 33.3032 21.2356 32.7466 21.0038 32.2595L33.6385 20.6172C34.1021 20.8723 34.6354 21.0115 35.1454 20.9883L42.448 41.4899C42.1698 41.6291 41.9148 41.8146 41.683 42.0465C41.4511 42.2553 41.2425 42.5104 41.0802 42.7655L21.2588 33.8134Z" fill="#761FE3"/>
<path d="M31.7374 4.6842C32.317 5.31038 33.0588 5.72784 33.8934 5.86699V6.19168L34.1021 15.2365C33.7311 15.3757 33.3834 15.5612 33.082 15.8395C33.0125 15.9091 32.9429 15.9787 32.8734 16.0482L26.2894 13.1724L13.5156 7.58319C13.5156 7.51362 13.5388 7.46723 13.5388 7.39766C13.5388 7.14254 13.5388 6.86424 13.4924 6.60913L30.7405 2.62012C30.8565 3.38545 31.2042 4.1044 31.7374 4.6842Z" fill="#761FE3"/>
<path opacity="0.5" d="M48.8464 17.5332C48.4755 17.8578 48.1973 18.2521 47.9886 18.6928L37.9736 17.4636C37.8809 16.9534 37.6259 16.4431 37.2549 16.0257C36.884 15.6314 36.4203 15.3531 35.9335 15.1908L35.7249 5.86762V5.75166C36.2812 5.58931 36.7913 5.28782 37.2086 4.89355L48.8464 17.5332Z" fill="#761FE3"/>
<path d="M44.488 41.0258C44.4185 41.0258 44.3258 41.0258 44.2562 41.0258L36.9072 20.3849C36.9768 20.3386 37.0463 20.2922 37.0927 20.2226C37.3941 19.9443 37.6027 19.6428 37.765 19.2949L47.5946 20.5009C47.6177 21.4518 47.9655 22.3331 48.6146 23.0288C49.1015 23.5622 49.7042 23.9333 50.3765 24.1188L45.2067 41.1185C44.9981 41.0722 44.7431 41.0258 44.488 41.0258Z" fill="#761FE3"/>
<path opacity="0.5" d="M21.2585 48.2612C20.7949 47.7742 20.2153 47.4495 19.6125 47.3103L19.3344 36.2709C19.7053 36.1318 20.053 35.9463 20.3544 35.668C20.4239 35.6216 20.4703 35.552 20.5399 35.4824L40.5004 44.5041C40.5004 44.5737 40.4772 44.6664 40.4772 44.736C40.4772 44.9911 40.4772 45.2462 40.5236 45.5013L22.0004 49.6295C21.8613 49.1193 21.6295 48.6554 21.2585 48.2612Z" fill="#761FE3"/>
<path opacity="0.5" d="M11.6842 7.32872C11.661 7.86213 11.4524 8.37235 11.0351 8.74342C10.2005 9.50876 8.92542 9.46237 8.16039 8.62746C7.78946 8.21001 7.604 7.67659 7.62718 7.16637C7.65036 6.63296 7.85901 6.12273 8.2763 5.75166C9.11089 4.98633 10.3859 5.03271 11.151 5.86762C11.5451 6.28508 11.7074 6.81849 11.6842 7.32872Z" fill="#761FE3"/>
<path d="M35.9799 3.54811C35.1453 4.31344 33.8702 4.26706 33.1052 3.43215C32.7343 3.0147 32.5488 2.48128 32.572 1.97106C32.5952 1.46084 32.8038 0.927422 33.2211 0.556351C34.0557 -0.208983 35.3308 -0.1626 36.0958 0.67231C36.4667 1.08977 36.6522 1.62318 36.629 2.1334C36.6058 2.64363 36.374 3.15385 35.9799 3.54811Z" fill="#761FE3"/>
<path opacity="0.5" d="M49.9823 21.7769C49.6114 21.3594 49.4259 20.826 49.4491 20.3158C49.4723 19.7824 49.6809 19.2721 50.0982 18.9011C50.9328 18.1357 52.2078 18.1821 52.9729 19.017C53.3438 19.4345 53.5293 19.9679 53.5061 20.4781C53.4829 21.0115 53.2743 21.5218 52.857 21.8928C52.0456 22.6582 50.7473 22.6118 49.9823 21.7769Z" fill="#761FE3"/>
<path d="M42.3088 44.8295C42.332 44.296 42.5406 43.7858 42.9579 43.4147C43.7925 42.6494 45.0676 42.6958 45.8326 43.5307C46.2035 43.9482 46.389 44.4816 46.3658 44.9918C46.3426 45.5252 46.134 46.0354 45.7167 46.4065C44.8821 47.1718 43.607 47.1255 42.842 46.2906C42.4479 45.8731 42.2856 45.3397 42.3088 44.8295Z" fill="#761FE3"/>
<path opacity="0.5" d="M17.5495 48.8884C18.3841 48.123 19.6591 48.1694 20.4242 49.0043C20.7951 49.4218 20.9806 49.9552 20.9574 50.4654C20.9342 50.9757 20.7256 51.5091 20.3083 51.8801C19.4737 52.6455 18.1986 52.5991 17.4336 51.7642C17.0627 51.3467 16.8772 50.8133 16.9004 50.3031C16.9236 49.7929 17.1554 49.2595 17.5495 48.8884Z" fill="#761FE3"/>
</g>
<defs>
<clipPath id="clip0_50_39">
<rect width="53.5294" height="52.437" fill="white"/>
</clipPath>
</defs>
</svg>
